<mxfile host="65bd71144e">
    <diagram name="ScreenFlow" id="screen-flow">
        <mxGraphModel dx="337" dy="216" grid="1" gridSize="10" guides="1" tooltips="1" connect="1" arrows="1" fold="1" page="1" pageScale="1" pageWidth="827" pageHeight="1169" math="0" shadow="0">
            <root>
                <mxCell id="0"/>
                <mxCell id="1" parent="0"/>
                <mxCell id="home" value="トップ" style="rounded=1;fillColor=#ADD8E6;whiteSpace=wrap;html=1;" parent="1" vertex="1">
                    <mxGeometry x="330" y="230" width="100" height="60" as="geometry"/>
                </mxCell>
                <mxCell id="profile" value="ログイン" style="rounded=1;fillColor=#ADD8E6;whiteSpace=wrap;html=1;" parent="1" vertex="1">
                    <mxGeometry x="330" y="140" width="100" height="60" as="geometry"/>
                </mxCell>
                <mxCell id="login" value="社員登録" style="rounded=1;fillColor=#ADD8E6;whiteSpace=wrap;html=1;" parent="1" vertex="1">
                    <mxGeometry x="630" y="230" width="100" height="60" as="geometry"/>
                </mxCell>
                <mxCell id="settings" value="テーブル位置&lt;div&gt;登録・変更&lt;/div&gt;" style="rounded=1;fillColor=#ADD8E6;whiteSpace=wrap;html=1;" parent="1" vertex="1">
                    <mxGeometry x="200" y="230" width="100" height="60" as="geometry"/>
                </mxCell>
                <mxCell id="edge1" style="endArrow=none;startArrow=block;startFill=1;endFill=0;" parent="1" source="home" target="profile" edge="1">
                    <mxGeometry relative="1" as="geometry"/>
                </mxCell>
                <mxCell id="edge2" style="endArrow=block;startArrow=none;startFill=0;exitX=1.019;exitY=0.336;exitDx=0;exitDy=0;entryX=-0.007;entryY=0.326;entryDx=0;entryDy=0;entryPerimeter=0;exitPerimeter=0;" parent="1" source="7" target="login" edge="1">
                    <mxGeometry relative="1" as="geometry">
                        <mxPoint x="580.0000000000001" y="260" as="sourcePoint"/>
                        <mxPoint x="670" y="210" as="targetPoint"/>
                    </mxGeometry>
                </mxCell>
                <mxCell id="edge4" style="endArrow=block;startArrow=none;startFill=0;exitX=1;exitY=0.25;exitDx=0;exitDy=0;entryX=0;entryY=0.25;entryDx=0;entryDy=0;" parent="1" edge="1">
                    <mxGeometry relative="1" as="geometry">
                        <mxPoint x="299.9999999999999" y="250" as="sourcePoint"/>
                        <Array as="points">
                            <mxPoint x="310" y="250"/>
                        </Array>
                        <mxPoint x="330.0000000000001" y="250" as="targetPoint"/>
                    </mxGeometry>
                </mxCell>
                <mxCell id="5" value="" style="endArrow=classic;html=1;exitX=-0.003;exitY=0.672;exitDx=0;exitDy=0;entryX=0.99;entryY=0.688;entryDx=0;entryDy=0;entryPerimeter=0;exitPerimeter=0;" parent="1" source="login" target="7" edge="1">
                    <mxGeometry width="50" height="50" relative="1" as="geometry">
                        <mxPoint x="580" y="380" as="sourcePoint"/>
                        <mxPoint x="470" y="340" as="targetPoint"/>
                        <Array as="points"/>
                    </mxGeometry>
                </mxCell>
                <mxCell id="6" value="" style="endArrow=classic;html=1;entryX=1;entryY=0.75;entryDx=0;entryDy=0;exitX=0;exitY=0.75;exitDx=0;exitDy=0;" parent="1" source="home" target="settings" edge="1">
                    <mxGeometry width="50" height="50" relative="1" as="geometry">
                        <mxPoint x="330" y="270" as="sourcePoint"/>
                        <mxPoint x="220" y="270" as="targetPoint"/>
                        <Array as="points">
                            <mxPoint x="320" y="275"/>
                        </Array>
                    </mxGeometry>
                </mxCell>
                <mxCell id="7" value="社員編集" style="rounded=1;fillColor=#ADD8E6;whiteSpace=wrap;html=1;" parent="1" vertex="1">
                    <mxGeometry x="480" y="230" width="100" height="60" as="geometry"/>
                </mxCell>
                <mxCell id="8" style="endArrow=block;startArrow=none;startFill=0;exitX=1.004;exitY=0.321;exitDx=0;exitDy=0;entryX=0.003;entryY=0.301;entryDx=0;entryDy=0;entryPerimeter=0;exitPerimeter=0;" parent="1" source="home" target="7" edge="1">
                    <mxGeometry relative="1" as="geometry">
                        <mxPoint x="390" y="330" as="sourcePoint"/>
                        <mxPoint x="510" y="330" as="targetPoint"/>
                    </mxGeometry>
                </mxCell>
                <mxCell id="9" value="" style="endArrow=classic;html=1;exitX=0;exitY=0.65;exitDx=0;exitDy=0;entryX=1.001;entryY=0.658;entryDx=0;entryDy=0;exitPerimeter=0;entryPerimeter=0;" parent="1" source="7" target="home" edge="1">
                    <mxGeometry width="50" height="50" relative="1" as="geometry">
                        <mxPoint x="480" y="340" as="sourcePoint"/>
                        <mxPoint x="360" y="340" as="targetPoint"/>
                        <Array as="points"/>
                    </mxGeometry>
                </mxCell>
                <mxCell id="10" value="プロジェクト登録" style="rounded=1;fillColor=#ADD8E6;whiteSpace=wrap;html=1;" vertex="1" parent="1">
                    <mxGeometry x="580" y="350" width="100" height="60" as="geometry"/>
                </mxCell>
                <mxCell id="11" style="endArrow=block;startArrow=none;startFill=0;exitX=1;exitY=0.75;exitDx=0;exitDy=0;entryX=0;entryY=0.75;entryDx=0;entryDy=0;" edge="1" parent="1">
                    <mxGeometry relative="1" as="geometry">
                        <mxPoint x="520" y="390" as="sourcePoint"/>
                        <mxPoint x="580" y="390" as="targetPoint"/>
                        <Array as="points">
                            <mxPoint x="550" y="390"/>
                        </Array>
                    </mxGeometry>
                </mxCell>
                <mxCell id="12" value="プロジェクト編集" style="rounded=1;fillColor=#ADD8E6;whiteSpace=wrap;html=1;" vertex="1" parent="1">
                    <mxGeometry x="420" y="350" width="100" height="60" as="geometry"/>
                </mxCell>
                <mxCell id="13" value="" style="endArrow=classic;html=1;exitX=0.003;exitY=0.411;exitDx=0;exitDy=0;entryX=1.007;entryY=0.411;entryDx=0;entryDy=0;exitPerimeter=0;entryPerimeter=0;" edge="1" parent="1">
                    <mxGeometry width="50" height="50" relative="1" as="geometry">
                        <mxPoint x="580.0000000000001" y="369.99999999999994" as="sourcePoint"/>
                        <mxPoint x="520.4" y="369.99999999999994" as="targetPoint"/>
                        <Array as="points"/>
                    </mxGeometry>
                </mxCell>
                <mxCell id="14" style="endArrow=block;startArrow=none;startFill=0;entryX=0.16;entryY=1;entryDx=0;entryDy=0;entryPerimeter=0;" edge="1" parent="1">
                    <mxGeometry relative="1" as="geometry">
                        <mxPoint x="450" y="349" as="sourcePoint"/>
                        <mxPoint x="391" y="290" as="targetPoint"/>
                    </mxGeometry>
                </mxCell>
                <mxCell id="15" value="" style="endArrow=classic;html=1;exitX=0.833;exitY=1.025;exitDx=0;exitDy=0;entryX=0.527;entryY=-0.017;entryDx=0;entryDy=0;entryPerimeter=0;exitPerimeter=0;" edge="1" parent="1" source="home" target="12">
                    <mxGeometry width="50" height="50" relative="1" as="geometry">
                        <mxPoint x="440" y="300" as="sourcePoint"/>
                        <mxPoint x="350" y="370" as="targetPoint"/>
                        <Array as="points"/>
                    </mxGeometry>
                </mxCell>
            </root>
        </mxGraphModel>
    </diagram>
</mxfile>